<?xml version="1.0" encoding="UTF-8" standalone="no"?>
<!-- Created with Inkscape (http://www.inkscape.org/) -->

<svg
   xmlns:dc="http://purl.org/dc/elements/1.1/"
   xmlns:cc="http://creativecommons.org/ns#"
   xmlns:rdf="http://www.w3.org/1999/02/22-rdf-syntax-ns#"
   xmlns:svg="http://www.w3.org/2000/svg"
   xmlns="http://www.w3.org/2000/svg"
   xmlns:sodipodi="http://sodipodi.sourceforge.net/DTD/sodipodi-0.dtd"
   xmlns:inkscape="http://www.inkscape.org/namespaces/inkscape"
   width="8.2020836mm"
   height="8.4666586mm"
   viewBox="0 0 8.2020836 8.4666586"
   version="1.1"
   id="svg921"
   inkscape:version="0.92.4 (5da689c313, 2019-01-14)"
   sodipodi:docname="logo.svg">
  <defs
     id="defs915" />
  <sodipodi:namedview
     id="base"
     pagecolor="#ffffff"
     bordercolor="#666666"
     borderopacity="1.0"
     inkscape:pageopacity="0.0"
     inkscape:pageshadow="2"
     inkscape:zoom="14.843751"
     inkscape:cx="28.066508"
     inkscape:cy="20.289875"
     inkscape:document-units="mm"
     inkscape:current-layer="layer1"
     showgrid="true"
     inkscape:snap-smooth-nodes="true"
     inkscape:snap-bbox="false"
     inkscape:bbox-nodes="true"
     inkscape:snap-nodes="true"
     inkscape:window-width="1366"
     inkscape:window-height="703"
     inkscape:window-x="0"
     inkscape:window-y="0"
     inkscape:window-maximized="1">
    <inkscape:grid
       type="xygrid"
       id="grid1466"
       empspacing="2"
       originx="-47.889582"
       originy="-161.92499" />
  </sodipodi:namedview>
  <metadata
     id="metadata918">
    <rdf:RDF>
      <cc:Work
         rdf:about="">
        <dc:format>image/svg+xml</dc:format>
        <dc:type
           rdf:resource="http://purl.org/dc/dcmitype/StillImage" />
        <dc:title />
      </cc:Work>
    </rdf:RDF>
  </metadata>
  <g
     inkscape:label="Capa 1"
     inkscape:groupmode="layer"
     id="layer1"
     transform="translate(-47.889584,-126.60835)">
    <rect
       style="opacity:1;fill:#0d1b27;fill-opacity:1;stroke:none;stroke-width:5.29166651;stroke-linecap:butt;stroke-linejoin:round;stroke-miterlimit:4;stroke-dasharray:none;stroke-opacity:1;paint-order:markers stroke fill"
       id="rect1596"
       width="8.2020836"
       height="8.4666586"
       x="47.889584"
       y="126.60835"
       inkscape:export-xdpi="792.77411"
       inkscape:export-ydpi="792.77411" />
    <path
       style="opacity:1;fill:#f9496d;fill-opacity:1;stroke:none;stroke-width:20;stroke-linecap:butt;stroke-linejoin:round;stroke-miterlimit:4;stroke-dasharray:none;stroke-opacity:1;paint-order:markers stroke fill"
       d="M 9 3 L 9 4 L 9 7 L 9 9 L 11 9 L 11 7 A 0.9999999 0.9999999 0 0 1 12 6 A 0.9999999 0.9999999 0 0 1 13 7 L 13 9 L 15 9 L 15 7 A 3 3 0 0 0 12 4 A 3 3 0 0 0 11 4.1757812 L 11 4 A 1.9999999 0.99999995 0 0 0 9 3 z "
       transform="matrix(0.26458333,0,0,0.26458333,47.889584,126.60835)"
       id="rect1511"
       inkscape:export-xdpi="792.77411"
       inkscape:export-ydpi="792.77411" />
    <path
       style="opacity:1;fill:#f9496d;fill-opacity:1;stroke:none;stroke-width:20;stroke-linecap:butt;stroke-linejoin:round;stroke-miterlimit:4;stroke-dasharray:none;stroke-opacity:1;paint-order:markers stroke fill"
       d="m 190,495.51953 v 1 1 1 3 h 2 v -2 -1 a 0.99999993,0.99999993 0 0 1 1,-1 0.99999993,0.99999993 0 0 1 1,1 h 2 a 3,3 0 0 0 -3,-3 3,3 0 0 0 -1.44531,0.37305 A 1.9999999,1.0000019 0 0 0 190,495.51953 Z"
       transform="scale(0.26458333)"
       id="rect1554"
       inkscape:connector-curvature="0"
       inkscape:export-xdpi="792.77411"
       inkscape:export-ydpi="792.77411" />
    <path
       style="opacity:1;fill:#23bdd2;fill-opacity:1;stroke:none;stroke-width:20;stroke-linecap:butt;stroke-linejoin:round;stroke-miterlimit:4;stroke-dasharray:none;stroke-opacity:1;paint-order:markers stroke fill"
       d="M 2 10 A 0.99999995 1.9999999 0 0 0 3 12 L 3 16 L 5 16 L 5 15 L 5.5 15 C 6.8806992 15 7.9999811 13.880699 8 12.5 C 8.0000038 11.119301 6.8807143 10 5.5 10 L 5 10 L 3 10 L 2 10 z M 5 12 L 5.5 12 C 5.7761701 12 6.0000189 12.223717 6 12.5 C 5.9999962 12.776283 5.7761361 13 5.5 13 L 5 13 L 5 12 z "
       transform="matrix(0.26458333,0,0,0.26458333,47.889584,126.60835)"
       id="rect1565"
       inkscape:export-xdpi="792.77411"
       inkscape:export-ydpi="792.77411" />
    <path
       id="path1590"
       d="m 52.916667,129.25417 a 0.79374999,0.79374999 0 0 0 -0.79375,0.79375 0.79374999,0.79374999 0 0 0 0.79375,0.79375 0.79374999,0.79374999 0 0 0 0.79375,-0.79375 0.79374999,0.79374999 0 0 0 -0.79375,-0.79375 z m 0,0.52916 a 0.26458332,0.26458332 0 0 1 0.264583,0.26459 0.26458332,0.26458332 0 0 1 -0.264583,0.26458 0.26458332,0.26458332 0 0 1 -0.264584,-0.26458 0.26458332,0.26458332 0 0 1 0.264584,-0.26459 z"
       style="opacity:1;fill:#23bdd2;fill-opacity:1;stroke:none;stroke-width:5.29166651;stroke-linecap:butt;stroke-linejoin:round;stroke-miterlimit:4;stroke-dasharray:none;stroke-opacity:1;paint-order:markers stroke fill"
       inkscape:connector-curvature="0"
       inkscape:export-xdpi="792.77411"
       inkscape:export-ydpi="792.77411" />
    <circle
       style="opacity:1;fill:#ffffff;fill-opacity:1;stroke:none;stroke-width:5.29166651;stroke-linecap:butt;stroke-linejoin:round;stroke-miterlimit:4;stroke-dasharray:none;stroke-opacity:1;paint-order:markers stroke fill"
       id="path1600"
       cx="51.064583"
       cy="130.04791"
       r="0.79374999"
       inkscape:export-xdpi="792.77411"
       inkscape:export-ydpi="792.77411" />
    <path
       style="opacity:1;fill:#f9496d;fill-opacity:1;stroke:none;stroke-width:20;stroke-linecap:butt;stroke-linejoin:round;stroke-miterlimit:4;stroke-dasharray:none;stroke-opacity:1;paint-order:markers stroke fill"
       d="m 193,502.51953 a 3,3 0 0 0 -3,3 3,3 0 0 0 3,3 3,3 0 0 0 1,-0.17578 v 0.17578 h 2 v -3 -2 -1 a 1.9999999,0.99999994 0 0 0 -1.55664,0.37305 A 3,3 0 0 0 193,502.51953 Z m 0,2 a 0.99999994,0.99999994 0 0 1 1,1 0.99999994,0.99999994 0 0 1 -1,1 0.99999994,0.99999994 0 0 1 -1,-1 0.99999994,0.99999994 0 0 1 1,-1 z"
       transform="scale(0.26458333)"
       id="path1641"
       inkscape:connector-curvature="0"
       inkscape:export-xdpi="792.77411"
       inkscape:export-ydpi="792.77411" />
    <path
       id="path1656"
       d="m 54.76875,129.25417 a 0.79374999,0.79374999 0 0 0 -0.79375,0.79375 0.79374999,0.79374999 0 0 0 0.79375,0.79375 0.79374999,0.79374999 0 0 0 0.264583,-0.0465 v 0.0465 H 55.5625 v -0.79375 -0.52917 -0.26458 a 0.52916663,0.26458331 0 0 0 -0.411861,0.0987 0.79374999,0.79374999 0 0 0 -0.381889,-0.0987 z m 0,0.52916 a 0.26458331,0.26458331 0 0 1 0.264583,0.26459 0.26458331,0.26458331 0 0 1 -0.264583,0.26458 0.26458331,0.26458331 0 0 1 -0.264583,-0.26458 0.26458331,0.26458331 0 0 1 0.264583,-0.26459 z"
       style="opacity:1;fill:#23bdd2;fill-opacity:1;stroke:none;stroke-width:5.29166651;stroke-linecap:butt;stroke-linejoin:round;stroke-miterlimit:4;stroke-dasharray:none;stroke-opacity:1;paint-order:markers stroke fill"
       inkscape:connector-curvature="0"
       inkscape:export-xdpi="792.77411"
       inkscape:export-ydpi="792.77411" />
    <path
       style="color:#000000;font-style:normal;font-variant:normal;font-weight:normal;font-stretch:normal;font-size:medium;line-height:normal;font-family:sans-serif;font-variant-ligatures:normal;font-variant-position:normal;font-variant-caps:normal;font-variant-numeric:normal;font-variant-alternates:normal;font-feature-settings:normal;text-indent:0;text-align:start;text-decoration:none;text-decoration-line:none;text-decoration-style:solid;text-decoration-color:#000000;letter-spacing:normal;word-spacing:normal;text-transform:none;writing-mode:lr-tb;direction:ltr;text-orientation:mixed;dominant-baseline:auto;baseline-shift:baseline;text-anchor:start;white-space:normal;shape-padding:0;clip-rule:nonzero;display:inline;overflow:visible;visibility:visible;opacity:1;isolation:auto;mix-blend-mode:normal;color-interpolation:sRGB;color-interpolation-filters:linearRGB;solid-color:#000000;solid-opacity:1;vector-effect:none;fill:#23bdd2;fill-opacity:1;fill-rule:nonzero;stroke:none;stroke-width:5;stroke-linecap:round;stroke-linejoin:round;stroke-miterlimit:4;stroke-dasharray:none;stroke-dashoffset:0;stroke-opacity:1;color-rendering:auto;image-rendering:auto;shape-rendering:auto;text-rendering:auto;enable-background:accumulate"
       d="m 55.082981,133.4875 a 0.066193,0.066193 0 0 0 -0.01446,0.13038 l 0.28692,0.0765 0.07647,0.28691 a 0.066193,0.066193 0 1 0 0.127884,-0.034 l -0.0863,-0.32394 a 0.066193,0.066193 0 0 0 -0.04689,-0.0469 l -0.323997,-0.0864 a 0.066193,0.066193 0 0 0 -0.0197,-0.002 z"
       id="path1680"
       inkscape:connector-curvature="0"
       inkscape:export-xdpi="792.77411"
       inkscape:export-ydpi="792.77411" />
    <path
       style="color:#000000;font-style:normal;font-variant:normal;font-weight:normal;font-stretch:normal;font-size:medium;line-height:normal;font-family:sans-serif;font-variant-ligatures:normal;font-variant-position:normal;font-variant-caps:normal;font-variant-numeric:normal;font-variant-alternates:normal;font-feature-settings:normal;text-indent:0;text-align:start;text-decoration:none;text-decoration-line:none;text-decoration-style:solid;text-decoration-color:#000000;letter-spacing:normal;word-spacing:normal;text-transform:none;writing-mode:lr-tb;direction:ltr;text-orientation:mixed;dominant-baseline:auto;baseline-shift:baseline;text-anchor:start;white-space:normal;shape-padding:0;clip-rule:nonzero;display:inline;overflow:visible;visibility:visible;opacity:1;isolation:auto;mix-blend-mode:normal;color-interpolation:sRGB;color-interpolation-filters:linearRGB;solid-color:#000000;solid-opacity:1;vector-effect:none;fill:#f9496d;fill-opacity:1;fill-rule:nonzero;stroke:none;stroke-width:5;stroke-linecap:round;stroke-linejoin:round;stroke-miterlimit:4;stroke-dasharray:none;stroke-dashoffset:0;stroke-opacity:1;color-rendering:auto;image-rendering:auto;shape-rendering:auto;text-rendering:auto;enable-background:accumulate"
       d="m 54.948284,133.62542 a 0.066193,0.066193 0 0 0 -0.06536,0.0841 l 0.172595,0.64791 a 0.06619681,0.06619681 0 1 0 0.127926,-0.034 l -0.172595,-0.64791 a 0.066193,0.066193 0 0 0 -0.06257,-0.0501 z"
       id="path1678"
       inkscape:connector-curvature="0"
       inkscape:export-xdpi="792.77411"
       inkscape:export-ydpi="792.77411" />
    <path
       style="color:#000000;font-style:normal;font-variant:normal;font-weight:normal;font-stretch:normal;font-size:medium;line-height:normal;font-family:sans-serif;font-variant-ligatures:normal;font-variant-position:normal;font-variant-caps:normal;font-variant-numeric:normal;font-variant-alternates:normal;font-feature-settings:normal;text-indent:0;text-align:start;text-decoration:none;text-decoration-line:none;text-decoration-style:solid;text-decoration-color:#000000;letter-spacing:normal;word-spacing:normal;text-transform:none;writing-mode:lr-tb;direction:ltr;text-orientation:mixed;dominant-baseline:auto;baseline-shift:baseline;text-anchor:start;white-space:normal;shape-padding:0;clip-rule:nonzero;display:inline;overflow:visible;visibility:visible;opacity:1;isolation:auto;mix-blend-mode:normal;color-interpolation:sRGB;color-interpolation-filters:linearRGB;solid-color:#000000;solid-opacity:1;vector-effect:none;fill:#23bdd2;fill-opacity:1;fill-rule:nonzero;stroke:none;stroke-width:5;stroke-linecap:round;stroke-linejoin:round;stroke-miterlimit:4;stroke-dasharray:none;stroke-dashoffset:0;stroke-opacity:1;color-rendering:auto;image-rendering:auto;shape-rendering:auto;text-rendering:auto;enable-background:accumulate"
       d="m 54.571902,134.00174 a 0.066193,0.066193 0 0 0 -0.06529,0.084 l 0.0863,0.32396 a 0.066193,0.066193 0 0 0 0.04689,0.047 l 0.323996,0.0864 a 0.06619323,0.06619323 0 1 0 0.03408,-0.12786 l -0.286934,-0.0765 -0.07647,-0.28694 a 0.066193,0.066193 0 0 0 -0.06257,-0.0501 z"
       id="rect817"
       inkscape:connector-curvature="0"
       inkscape:export-xdpi="792.77411"
       inkscape:export-ydpi="792.77411" />
    <path
       style="opacity:1;fill:#0d1b27;fill-opacity:1;stroke:none;stroke-width:5.29166651;stroke-linecap:butt;stroke-linejoin:round;stroke-miterlimit:4;stroke-dasharray:none;stroke-opacity:1;paint-order:markers stroke fill"
       d="m 57.679168,126.60836 a 1.3229181,1.3229181 0 0 0 -1.322919,1.32292 1.3229181,1.3229181 0 0 0 1.322919,1.32292 1.3229181,1.3229181 0 0 0 1.322918,-1.32292 1.3229181,1.3229181 0 0 0 -1.322918,-1.32292 z"
       id="rect1726"
       inkscape:connector-curvature="0"
       inkscape:export-xdpi="1843.1975"
       inkscape:export-ydpi="1843.1975" />
    <circle
       style="opacity:1;fill:#f9496d;fill-opacity:1;stroke:none;stroke-width:5.29166651;stroke-linecap:butt;stroke-linejoin:round;stroke-miterlimit:4;stroke-dasharray:none;stroke-opacity:1;paint-order:markers stroke fill"
       id="path1600-3"
       cx="57.679169"
       cy="127.93125"
       r="0.79374999"
       inkscape:export-xdpi="1843.1975"
       inkscape:export-ydpi="1843.1975" />
    <path
       style="opacity:1;fill:#23bdd2;fill-opacity:1;stroke:none;stroke-width:5.29166651;stroke-linecap:butt;stroke-linejoin:round;stroke-miterlimit:4;stroke-dasharray:none;stroke-opacity:1;paint-order:markers stroke fill"
       d="m 57.679165,127.66663 a 0.26458332,0.26458332 0 0 0 -0.264583,0.26458 v 0.79375 h 0.529166 v -0.52917 h 0.529167 v -0.52916 z"
       id="path1598-6"
       inkscape:connector-curvature="0"
       inkscape:export-xdpi="1843.1975"
       inkscape:export-ydpi="1843.1975" />
    <circle
       style="opacity:1;fill:#ffffff;fill-opacity:1;stroke:none;stroke-width:0.26458335;stroke-linecap:butt;stroke-linejoin:round;stroke-miterlimit:4;stroke-dasharray:none;stroke-opacity:1;paint-order:markers stroke fill"
       id="path1421"
       cx="51.06459"
       cy="130.04793"
       r="0.13229167" />
    <circle
       r="0.13229167"
       cy="127.93128"
       cx="57.67918"
       id="circle1423"
       style="opacity:1;fill:#ffffff;fill-opacity:1;stroke:none;stroke-width:0.26458335;stroke-linecap:butt;stroke-linejoin:round;stroke-miterlimit:4;stroke-dasharray:none;stroke-opacity:1;paint-order:markers stroke fill" />
    <circle
       style="opacity:1;fill:#ffffff;fill-opacity:1;stroke:none;stroke-width:0.26458332;stroke-linecap:butt;stroke-linejoin:round;stroke-miterlimit:4;stroke-dasharray:none;stroke-opacity:1;paint-order:markers stroke fill"
       id="path1425"
       cx="51.064587"
       cy="130.04791"
       r="0.26458332" />
    <rect
       style="opacity:1;fill:#ffffff;fill-opacity:1;stroke:none;stroke-width:0.26458332;stroke-linecap:butt;stroke-linejoin:round;stroke-miterlimit:4;stroke-dasharray:none;stroke-opacity:1;paint-order:markers stroke fill"
       id="rect1427"
       width="0.52916664"
       height="0.79374999"
       x="50.800003"
       y="130.04791" />
  </g>
</svg>
